<svg id="Capa_1" enable-background="new 0 0 511.889 511.889" fill="white" viewBox="0 0 511.889 511.889" xmlns="http://www.w3.org/2000/svg"><g><path d="m378.731 219.92c46.12 48.201 92.308 93.83 132.272 142.267l.884-.884c.33-76.596-31.141-145.771-79.419-209.974l5.761-32.89-44.779-44.78-32.889 5.762c-63.867-48.024-132.666-79.417-208.783-79.421-.402 0-.79.001-1.192.003l-.884.884c48.437 39.966 94.067 86.152 142.266 132.272l-8.915 50.899 44.779 44.779z"/><path d="m430.023 22.859h48.009v70.009h-48.009z" transform="matrix(.707 -.707 .707 .707 92.065 337.993)"/><path d="m-28.988 322.396h366.958v70.007h-366.958z" transform="matrix(.707 -.707 .707 .707 -207.471 213.922)"/></g></svg>