<?xml version="1.0" encoding="iso-8859-1"?>
<!-- Generator: Adobe Illustrator 19.0.0, SVG Export Plug-In . SVG Version: 6.00 Build 0)  -->
<svg version="1.1" id="Layer_1" xmlns="http://www.w3.org/2000/svg" xmlns:xlink="http://www.w3.org/1999/xlink" x="0px" y="0px"
	 viewBox="0 0 512 512" style="enable-background:new 0 0 512 512;" xml:space="preserve">
<g>
	<g>
		<path d="M120.202,349.37c-5.859-5.859-15.352-5.859-21.211,0L4.395,443.956c-5.86,5.859-5.86,15.351,0,21.211
			c5.859,5.859,15.352,5.859,21.211,0l94.596-94.586C126.061,364.722,126.061,355.229,120.202,349.37z"/>
	</g>
</g>
<g>
	<g>
		<path d="M77.78,306.934c-5.859-5.859-15.352-5.859-21.211,0l-52.175,52.18c-5.86,5.859-5.86,15.352,0,21.211
			c5.859,5.859,15.352,5.859,21.211,0l52.175-52.18C83.639,322.285,83.639,312.793,77.78,306.934z"/>
	</g>
</g>
<g>
	<g>
		<path d="M162.623,391.791c-5.859-5.859-15.352-5.859-21.211,0l-94.581,94.601c-5.859,5.859-5.859,15.352,0,21.211
			c5.859,5.859,15.352,5.86,21.211,0l94.581-94.601C168.482,407.143,168.482,397.65,162.623,391.791z"/>
	</g>
</g>
<g>
	<g>
		<path d="M205.059,434.213c-5.859-5.859-15.352-5.859-21.211,0l-52.175,52.18c-5.859,5.859-5.859,15.352,0,21.211
			c5.859,5.86,15.351,5.86,21.211,0l52.175-52.18C210.918,449.564,210.918,440.072,205.059,434.213z"/>
	</g>
</g>
<g>
	<g>
		<path d="M311.128,9.953L98.99,222.09c-4.814,4.814-8.245,10.582-10.453,16.816h224.407c8.276,0.001,14.999-6.723,14.999-14.999
			V0.005C321.739,2.098,315.892,5.185,311.128,9.953z"/>
	</g>
</g>
<g>
	<g>
		<path d="M502.039,137.233L374.76,9.954c-4.768-4.772-10.513-7.861-16.716-9.952v153.947h153.952
			C509.788,147.714,506.851,142.045,502.039,137.233z"/>
	</g>
</g>
<g>
	<g>
		<path d="M358.043,184.049v39.858c0,24.814-20.286,45.1-45.1,45.1h-39.858v154.451c6.238-2.208,12.01-5.64,16.816-10.455
			l212.137-212.122c4.816-4.816,7.753-10.591,9.961-16.831H358.043z"/>
	</g>
</g>
<g>
	<g>
		<path d="M88.538,269.007c2.208,6.235,5.64,11.904,10.452,16.716l127.279,127.279c4.812,4.812,10.482,8.244,16.717,10.452V269.007
			H88.538z"/>
	</g>
</g>
<g>
</g>
<g>
</g>
<g>
</g>
<g>
</g>
<g>
</g>
<g>
</g>
<g>
</g>
<g>
</g>
<g>
</g>
<g>
</g>
<g>
</g>
<g>
</g>
<g>
</g>
<g>
</g>
<g>
</g>
</svg>
