<?xml version="1.0" encoding="iso-8859-1"?>
<!-- Generator: Adobe Illustrator 19.0.0, SVG Export Plug-In . SVG Version: 6.00 Build 0)  -->
<svg version="1.1" id="Capa_1" xmlns="http://www.w3.org/2000/svg" xmlns:xlink="http://www.w3.org/1999/xlink" x="0px" y="0px"
	 viewBox="0 0 512 512" style="enable-background:new 0 0 512 512;" xml:space="preserve">
<g>
	<g>
		<path d="M478.701,180.483c-7.37-21.161-28.323-33.248-49.986-29.766l-70.256-37.676C377.7,103.039,391.015,83.148,391.015,60
			c0-33.091-26.924-60-60-60s-60,26.909-60,60c0,11.199,3.279,21.566,8.643,30.546c-8.796,1.262-16.821,5.423-17.549,6.515
			c-6.258,3.562-11.701,8.966-16.523,18.076l-0.029-0.015l-59.648,119.355c-2.484,4.969-4.893,15.361-4.893,20.522v101.47
			l-76.904,78.626c-17.578,17.593-17.578,46.216,0.293,64.087c17.402,16.523,45.527,16.802,63.516-0.278l90.293-90.293
			c8.145-8.599,12.803-22.127,12.803-33.611v92c0,24.814,20.186,45,45,45c24.814,0,45-20.186,45-45V345
			c0-11.66-4.541-22.881-13.096-31.904l-67.09-67.075l10.752-21.563l16.992,25.269c11.309,17.183,34.482,22.822,51.797,18.003l90-30
			c0.059-0.015,0.117-0.029,0.176-0.059C474.013,229.541,486.406,204.565,478.701,180.483z M364.414,171.445L342.3,138.417
			l46.401,24.884L364.414,171.445z"/>
	</g>
</g>
<g>
	<g>
		<path d="M164.199,33.809C96.172,15.586,31.015,67.822,31.015,135c0,57.891,47.109,105,105,105c6.215,0,11.855-0.588,17.275-1.437
			c1.357-5.581,0.577-5.79,5.782-17.503l60.293-120.63c10.705-17.396,16.633-25.56,38.458-34.871
			C227.114,53.256,195.847,42.62,164.199,33.809z"/>
	</g>
</g>
<g>
</g>
<g>
</g>
<g>
</g>
<g>
</g>
<g>
</g>
<g>
</g>
<g>
</g>
<g>
</g>
<g>
</g>
<g>
</g>
<g>
</g>
<g>
</g>
<g>
</g>
<g>
</g>
<g>
</g>
</svg>
