<svg id="bold" fill="#252523" enable-background="new 0 0 24 24" height="512" viewBox="0 0 24 24" width="512" xmlns="http://www.w3.org/2000/svg"><circle cx="12" cy="2.5" r="2.5"/><circle cx="19" cy="16.5" r="2.5"/><circle cx="5" cy="16.5" r="2.5"/><path d="m16.25 10h-8.5c-.414 0-.75-.336-.75-.75v-.5c0-1.517 1.233-2.75 2.75-2.75h4.5c1.517 0 2.75 1.233 2.75 2.75v.5c0 .414-.336.75-.75.75z"/><path d="m23.25 24h-8.5c-.414 0-.75-.336-.75-.75v-.5c0-1.517 1.233-2.75 2.75-2.75h4.5c1.517 0 2.75 1.233 2.75 2.75v.5c0 .414-.336.75-.75.75z"/><path d="m9.25 24h-8.5c-.414 0-.75-.336-.75-.75v-.5c0-1.517 1.233-2.75 2.75-2.75h4.5c1.517 0 2.75 1.233 2.75 2.75v.5c0 .414-.336.75-.75.75z"/><path d="m2.75 12.762c-.414 0-.75-.336-.75-.75 0-3.876 2.272-7.437 5.788-9.072.377-.174.821-.012.997.364.173.375.011.821-.365.996-2.989 1.39-4.92 4.417-4.92 7.712 0 .414-.336.75-.75.75z"/><path d="m21.25 12.762c-.414 0-.75-.336-.75-.75 0-3.295-1.931-6.322-4.92-7.712-.375-.175-.538-.621-.364-.997.175-.375.62-.538.997-.364 3.515 1.636 5.787 5.197 5.787 9.073 0 .414-.336.75-.75.75z"/><path d="m12 22.012c-.354 0-.702-.019-1.046-.054-.412-.043-.711-.412-.668-.824.043-.411.407-.705.824-.668.602.063 1.233.06 1.837-.006.409-.047.782.252.828.664.045.412-.252.782-.664.828-.364.039-.735.06-1.111.06z"/></svg>