<?xml version="1.0" encoding="iso-8859-1"?>
<!-- Generator: Adobe Illustrator 19.0.0, SVG Export Plug-In . SVG Version: 6.00 Build 0)  -->
<svg fill="white" version="1.1" id="Capa_1" xmlns="http://www.w3.org/2000/svg" xmlns:xlink="http://www.w3.org/1999/xlink" x="0px" y="0px"
	 viewBox="0 0 512 512" style="enable-background:new 0 0 512 512;" xml:space="preserve">
<g>
	<g>
		<path d="M179.2,355.902H86.596l36.267-72.03l33.903,27.46c2.884,2.347,6.972,2.543,10.069,0.486
			c3.115-2.048,4.531-5.879,3.499-9.463l-34.133-119.466c-1.169-4.105-5.197-6.699-9.412-6.101L7.322,193.854
			c-3.575,0.512-6.434,3.217-7.151,6.758c-0.717,3.541,0.879,7.151,3.968,9.003l35.593,21.359l-29.15,52.463
			C3.661,295.896,0,310.027,0,324.278c0,10.752,2.022,21.265,6.016,31.24l28.211,70.537c1.007,27.358,23.509,49.314,51.106,49.314
			H179.2c4.71,0,8.533-3.823,8.533-8.533v-102.4C187.733,359.725,183.91,355.902,179.2,355.902z"/>
	</g>
</g>
<g>
	<g>
		<path d="M422.524,60.027c-3.081-1.903-7.014-1.673-9.83,0.597L380.31,86.581l-39.074-45.568
			c-9.284-10.82-21.257-19.157-34.62-24.115c-10.086-3.729-20.514-5.495-31.377-5.205l-75.93,1.954
			c-12.322-4.062-25.523-3.405-37.385,2.039c-12.416,5.7-21.879,15.915-26.633,28.749v0.017l-32.606,88.004
			c-1.638,4.412,0.614,9.318,5.035,10.957l96.017,35.575c0.981,0.367,1.98,0.538,2.97,0.538c3.465,0,6.724-2.125,8.004-5.572
			l32.171-86.835l54.947,59.033l-37.53,22.246c-3.2,1.903-4.804,5.658-3.959,9.276c0.845,3.635,3.951,6.289,7.654,6.571
			l123.887,9.498c0.222,0.017,0.435,0.026,0.657,0.026c3.985,0,7.484-2.782,8.337-6.724l25.498-117.956
			C427.141,65.556,425.597,61.93,422.524,60.027z"/>
	</g>
</g>
<g>
	<g>
		<path d="M511.864,321.095c-0.043-0.572-0.171-1.118-0.341-1.681c-0.162-0.555-0.341-1.075-0.606-1.579
			c-0.111-0.213-0.12-0.444-0.247-0.649l-59.733-93.867c-1.237-1.937-3.191-3.294-5.436-3.772c-2.261-0.461-4.591-0.017-6.502,1.254
			l-76.8,51.2c-1.988,1.323-3.328,3.43-3.695,5.794s0.273,4.77,1.766,6.639l57.182,71.467H332.8v-34.132
			c0-3.533-2.176-6.699-5.478-7.97c-3.277-1.263-7.031-0.367-9.395,2.261l-76.8,85.333c-0.29,0.324-0.401,0.717-0.631,1.067
			c-0.324,0.486-0.657,0.947-0.87,1.476c-0.205,0.512-0.29,1.024-0.393,1.562c-0.102,0.538-0.222,1.05-0.222,1.604
			c0,0.555,0.12,1.067,0.222,1.604c0.102,0.538,0.188,1.05,0.393,1.562c0.213,0.529,0.546,0.99,0.87,1.476
			c0.23,0.35,0.341,0.742,0.631,1.067l76.8,85.333c1.647,1.835,3.968,2.825,6.34,2.825c1.024,0,2.065-0.179,3.055-0.563
			c3.302-1.271,5.478-4.437,5.478-7.97v-34.133h62.908c19.226,0,37.393-7.228,51.166-20.343
			c16.606-15.829,39.654-43.699,55.654-86.63c5.939-8.363,9.472-18.543,9.472-29.559C512,321.53,511.881,321.333,511.864,321.095z"
			/>
	</g>
</g>
<g>
</g>
<g>
</g>
<g>
</g>
<g>
</g>
<g>
</g>
<g>
</g>
<g>
</g>
<g>
</g>
<g>
</g>
<g>
</g>
<g>
</g>
<g>
</g>
<g>
</g>
<g>
</g>
<g>
</g>
</svg>
